<svg width="120" height="17" viewBox="0 0 120 17" fill="none" xmlns="http://www.w3.org/2000/svg">
<path d="M10.2145 2.42212H2.27307C1.58507 2.42212 1.01298 2.95703 0.959923 3.64994L0.279225 12.5389C0.184384 13.7774 1.67249 14.4599 2.53313 13.5726L11.1553 4.68368C11.972 3.84172 11.3815 2.42212 10.2145 2.42212Z" fill="#2C2826"/>
<path d="M114.847 2.99198H119.671V13.7554H114.847V13.2697C114.847 13.192 114.772 13.192 114.753 13.192C114.734 13.192 114.715 13.192 114.696 13.2114C114.112 13.8137 113.452 14.1051 112.698 14.1051C110.531 14.1051 108.948 11.6765 108.948 8.47083C108.948 5.36226 110.739 2.83655 112.943 2.83655H112.962C113.622 2.83655 114.206 3.06969 114.696 3.53598C114.715 3.5554 114.734 3.55541 114.753 3.55541C114.772 3.55541 114.847 3.53598 114.847 3.45826V2.99198ZM114.847 10.3943V6.52798C114.847 6.31426 114.677 6.15883 114.47 6.15883C114.263 6.15883 114.112 6.31426 114.112 6.52798V10.3943C114.112 10.608 114.263 10.7634 114.47 10.7634C114.677 10.7634 114.847 10.608 114.847 10.3943Z" fill="#2C2826"/>
<path d="M105.601 9.46172L102.982 9.83086C102.756 9.85029 102.68 10.064 102.68 10.2C102.68 10.2389 102.699 10.5691 103.02 10.5691C103.038 10.5691 103.057 10.5691 103.076 10.5691L108.315 9.81143V13.7554H101.079C99.3448 13.7554 97.9502 12.3177 97.9502 10.5303C97.9502 8.91772 99.1186 7.49943 100.664 7.28572L103.34 6.89715C103.585 6.87772 103.642 6.68343 103.642 6.54743C103.642 6.50858 103.604 6.15886 103.34 6.15886C103.302 6.15886 103.283 6.17829 103.246 6.17829L97.9502 6.936V2.992H105.187C106.921 2.992 108.315 4.44915 108.315 6.23658C108.315 7.84915 107.147 9.20915 105.601 9.46172Z" fill="#2C2826"/>
<path d="M94.2831 9.46172L91.6636 9.83086C91.4374 9.85029 91.3621 10.064 91.3621 10.2C91.3621 10.2389 91.3809 10.5691 91.7013 10.5691C91.7201 10.5691 91.739 10.5691 91.7578 10.5691L96.9969 9.81143V13.7554H89.7602C88.0264 13.7554 86.6318 12.3177 86.6318 10.5303C86.6318 8.91772 87.8003 7.49943 89.3456 7.28572L92.0216 6.89715C92.2666 6.87772 92.3232 6.68343 92.3232 6.54743C92.3232 6.50858 92.2855 6.15886 92.0216 6.15886C91.984 6.15886 91.9651 6.17829 91.9274 6.17829L86.6318 6.936V2.992H93.8685C95.6023 2.992 96.9969 4.44915 96.9969 6.23658C96.9969 7.84915 95.8284 9.20915 94.2831 9.46172Z" fill="#2C2826"/>
<path d="M85.6398 2.89486C85.5456 3.57486 85.1875 4.13829 84.6787 4.50743C84.1698 4.87657 83.661 4.99314 83.2653 4.99314C83.1333 4.99314 83.0203 4.97371 82.8883 4.95429C82.2288 4.81829 81.6822 4.46857 81.3242 3.944C80.9473 3.41943 80.853 2.89486 80.853 2.50628C80.853 2.37028 80.8719 2.23428 80.8907 2.09829C80.9849 1.41828 81.343 0.854856 81.8518 0.466285C82.3607 0.0971428 82.8695 0 83.2464 0C83.3783 0 83.5102 0.0194283 83.661 0.0388566C84.3206 0.135999 84.8671 0.505142 85.2252 1.02971C85.5832 1.55428 85.6775 2.07886 85.6775 2.46743C85.6775 2.60343 85.6586 2.73943 85.6398 2.89486ZM85.6775 13.7554H80.853V5.73143H85.6775V13.7554Z" fill="#2C2826"/>
<path d="M76.5441 2.83655C78.7114 2.83655 80.2944 5.26512 80.2944 8.47083C80.2944 11.56 78.5041 14.1051 76.2803 14.1051C75.6207 14.1051 75.0553 13.872 74.5465 13.3863C74.5277 13.3668 74.5088 13.3668 74.49 13.3668C74.4711 13.3668 74.3957 13.3863 74.3957 13.464V16.9806H69.5713V2.99198H74.3957V3.65255C74.3957 3.73026 74.4711 3.73026 74.49 3.73026C74.5088 3.73026 74.5277 3.73026 74.5465 3.71083C75.1119 3.12798 75.7715 2.83655 76.5441 2.83655ZM75.1307 10.3943V6.52798C75.1307 6.31426 74.9611 6.15883 74.7538 6.15883C74.5465 6.15883 74.3957 6.31426 74.3957 6.52798V10.3943C74.3957 10.608 74.5465 10.7634 74.7538 10.7634C74.9611 10.7634 75.1307 10.608 75.1307 10.3943Z" fill="#2C2826"/>
<path d="M58.9061 2.83655H58.925C61.9402 2.83655 64.3902 5.36226 64.3902 8.47083C64.3902 11.56 61.9026 14.1051 58.9061 14.1051C55.8908 14.1051 53.4409 11.56 53.4409 8.47083C53.4409 5.36226 55.8908 2.83655 58.9061 2.83655ZM59.283 10.3943V6.52798C59.283 6.31426 59.1323 6.15883 58.925 6.15883C58.7177 6.15883 58.5669 6.31426 58.5669 6.52798V10.3943C58.5669 10.608 58.7177 10.7634 58.925 10.7634C59.1323 10.7634 59.283 10.608 59.283 10.3943Z" fill="#2C2826"/>
<path d="M48.0593 2.99198H52.8837V11.9291C52.8837 15.6983 50.9992 16.9806 47.9651 16.9806H46.7589V14.4548H47.9651C48.0216 14.4548 48.0593 14.4354 48.0593 14.3771V13.2697C48.0593 13.192 47.9839 13.192 47.9651 13.192C47.9462 13.192 47.9274 13.192 47.9085 13.2114C47.3243 13.8137 46.6647 14.1051 45.9109 14.1051C43.7437 14.1051 42.1606 11.6765 42.1606 8.47083C42.1606 5.36226 43.951 2.83655 46.1559 2.83655H46.1747C46.8343 2.83655 47.4185 3.06969 47.9085 3.53598C47.9274 3.55541 47.9462 3.55541 47.9651 3.55541C47.9839 3.55541 48.0593 3.53598 48.0593 3.45826V2.99198ZM48.0593 10.3943V6.52798C48.0593 6.31426 47.8897 6.15883 47.6824 6.15883C47.4751 6.15883 47.3243 6.31426 47.3243 6.52798V10.3943C47.3243 10.608 47.4751 10.7634 47.6824 10.7634C47.8897 10.7634 48.0593 10.608 48.0593 10.3943Z" fill="#2C2826"/>
<path d="M31.8158 2.83655H31.8346C34.8499 2.83655 37.2998 5.36226 37.2998 8.47083C37.2998 11.56 34.8122 14.1051 31.8158 14.1051C28.8005 14.1051 26.3506 11.56 26.3506 8.47083C26.3506 5.36226 28.8005 2.83655 31.8158 2.83655ZM32.1927 10.3943V6.52798C32.1927 6.31426 32.0419 6.15883 31.8346 6.15883C31.6273 6.15883 31.4766 6.31426 31.4766 6.52798V10.3943C31.4766 10.608 31.6273 10.7634 31.8346 10.7634C32.0419 10.7634 32.1927 10.608 32.1927 10.3943Z" fill="#2C2826"/>
<path d="M20.969 2.99198H25.7934V11.9291C25.7934 15.6983 23.9089 16.9806 20.8747 16.9806H19.6686V14.4548H20.8747C20.9313 14.4548 20.969 14.4354 20.969 14.3771V13.2697C20.969 13.192 20.8936 13.192 20.8747 13.192C20.8559 13.192 20.837 13.192 20.8182 13.2114C20.234 13.8137 19.5744 14.1051 18.8206 14.1051C16.6533 14.1051 15.0703 11.6765 15.0703 8.47083C15.0703 5.36226 16.8606 2.83655 19.0656 2.83655H19.0844C19.744 2.83655 20.3282 3.06969 20.8182 3.53598C20.837 3.55541 20.8559 3.55541 20.8747 3.55541C20.8936 3.55541 20.969 3.53598 20.969 3.45826V2.99198ZM20.969 10.3943V6.52798C20.969 6.31426 20.7993 6.15883 20.592 6.15883C20.3847 6.15883 20.234 6.31426 20.234 6.52798V10.3943C20.234 10.608 20.3847 10.7634 20.592 10.7634C20.7993 10.7634 20.969 10.608 20.969 10.3943Z" fill="#2C2826"/>
</svg>
